# xmcd
#
# Track frame offsets:
#	150
#	13604
#	29558
#	46813
#	62842
#	78103
#	96367
#	111285
#	130815
#	146211
#	162270
#	180957
#	199024
#	216095
#	230642
#	247626
#	264077
#
# Disc length: 3752 seconds
#
# Revision: 0
# Processed by: cddbd v1.5.1PL0 Copyright (c) Steve Scherf et al.
# Submitted via: EasyCDDAExtractor 8.2.1.1
#
DISCID=df0ea611
DTITLE=Various Artist - CDX Volume 376
DYEAR=2005
DGENRE=Country
TTITLE0=Chris LeDoux - Airborne Cowboy
TTITLE1=Gretchen Wilson - All Jacked Up
TTITLE2=Keith Urban - Better Life
TTITLE3=Darryl Worley - I Love Her She Hates me
TTITLE4=Patty Loveless - Keep Your Distance
TTITLE5=Eddy Arnold - Old Porch Swing
TTITLE6=Martina McBride - Rose Garden
TTITLE7=Rascal Flatts - Skin Sarabeth
TTITLE8=Alan Jackson - USA Today
TTITLE9=Ray Henderson and Clint Black - A Grain Of Sale And A SHot Of Tequila
TTITLE10=Fanny Grace - Counting On Love
TTITLE11=Leland martin - Country As The Day Is long
TTITLE12=Randy Rogers Band - Down and Out
TTITLE13=Shurman - Drownin'
TTITLE14=Scott Getlin - Love Ain't Enough
TTITLE15=Valarie Smith and Liberty Pike - Engineer
TTITLE16=Teresa Wade - Kudzu
EXTD=
EXTT0=
EXTT1=
EXTT2=
EXTT3=
EXTT4=
EXTT5=
EXTT6=
EXTT7=
EXTT8=
EXTT9=
EXTT10=
EXTT11=
EXTT12=
EXTT13=
EXTT14=
EXTT15=
EXTT16=
PLAYORDER=
